<svg id="Capa_1" enable-background="new 0 0 510.115 510.115" height="512" viewBox="0 0 510.115 510.115" width="512" xmlns="http://www.w3.org/2000/svg"><g><path d="m422.569 41.712-28.43-23.85c-17.98-15.1-44.36-13.28-58.9 4.05l-32.05 38.2 3.877 22.772 68.223 58.223 21.47-2.475 32.05-38.2c14.54-17.34 11.75-43.62-6.24-58.72z" fill="#efedef"/><path d="m345.464 112.114-3.877-22.772 32.05-38.2c11.498-13.704 30.397-17.699 46.694-11.309l-26.192-21.972c-17.98-15.1-44.36-13.28-58.9 4.05l-32.05 38.2 3.877 22.772 68.223 58.223 3.653-.421z" fill="#e5e1e5"/><path d="m34.08 399.682-19.831 4.74-4.97 5.927c-1.146 1.367-1.745 3.109-1.682 4.892l1.532 43.421 11.453 24.28 14.094 11.95 22.403 2.26 41.246-5.785c1.766-.248 3.378-1.141 4.525-2.507l4.969-5.918 2.099-20.339z" fill="#fae2c0"/><g><g id="XMLID_864_"><g><path d="m396.749 138.622-93.56-78.51-21.47 25.57-9.117 32.493 60.529 60.528 42.158-14.502 21.47-25.569z" fill="#f47c7c"/><path d="m340.173 91.146-36.984-31.035-21.47 25.57-9.117 32.493 60.529 60.528 42.158-14.501 8.49-10.112-40.982-34.138c-8.679-7.229-9.854-20.126-2.624-28.805z" fill="#ee6161"/><path d="m346.019 139.642-37.78 14.169-17.471-15.266 22.291-26.563-31.34-26.3-267.47 318.74 31.34 26.299 20.933-24.945 25.859 36.113-13.832 16.483 29.27 24.57 267.47-318.741z" fill="#fee45a"/><path d="m-12.242 263.667h416.092v43.025h-416.092z" fill="#e94444" transform="matrix(.643 -.766 .766 .643 -148.514 251.844)"/></g></g></g><path d="m9.073 457.073.056 1.589 1.26 35.92c.17 4.79 4.57 8.47 9.31 7.81l37.38-5.24z" fill="#aa9ea9"/><g><path d="m349.967 494.891h-242.387l5.98-7.127c.001-.001.003-.003.004-.004.001-.002.002-.003.004-.005l61.307-73.058c2.663-3.173 2.249-7.904-.924-10.566-3.173-2.664-7.904-2.249-10.566.924l-56.49 67.318-17.78-14.92 257.827-307.247 17.78 14.92-180.713 215.351c-2.663 3.173-2.249 7.904.924 10.566 3.172 2.663 7.903 2.248 10.566-.924l239.051-284.871c17.18-20.473 13.969-51.551-7.156-69.28l-28.43-23.855c-21.127-17.728-52.291-15.496-69.471 4.977l-320.984 382.51s-.001.001-.001.001-.001.001-.001.001l-6.751 8.045c-1.192 1.421-1.815 3.232-1.75 5.085l2.892 82.111c.156 4.402 2.201 8.569 5.612 11.432 2.855 2.396 6.444 3.691 10.097 3.691.481 0 .963-.031 1.445-.076h329.917c4.143 0 7.5-3.357 7.5-7.5s-3.359-7.499-7.502-7.499zm-332.815-21.454 22.197 18.627-20.689 2.9c-.226.034-.414-.098-.509-.178-.095-.079-.255-.247-.263-.47zm80.021 10.521-37.828 5.302-42.903-36.002-1.344-38.175.08-.095 82.076 68.875zm-19.549-36.148-21.47-18.017 204.462-243.652c2.663-3.173 2.249-7.904-.924-10.566-3.174-2.664-7.904-2.249-10.566.924l-204.462 243.652-19.845-16.653 257.827-307.247 19.845 16.654-32.741 39.017c-2.663 3.173-2.249 7.904.924 10.566 1.405 1.18 3.116 1.755 4.817 1.755 2.141 0 4.266-.911 5.749-2.679l32.741-39.017 21.469 18.016zm263.36-421.078c11.862-14.138 33.549-15.539 48.338-3.129l28.43 23.855c14.79 12.412 17.171 34.011 5.309 48.147l-27.233 32.453-7.757-6.509c-3.174-2.664-7.904-2.248-10.566.924-2.663 3.173-2.249 7.904.924 10.566l7.757 6.509-11.82 14.085-82.077-68.873 11.819-14.084 49.813 41.8c1.405 1.18 3.116 1.755 4.817 1.755 2.141 0 4.266-.911 5.749-2.679 2.663-3.173 2.249-7.904-.924-10.566l-49.814-41.8z"/><path d="m502.615 494.891h-113.279c-4.143 0-7.5 3.357-7.5 7.5s3.357 7.5 7.5 7.5h113.279c4.143 0 7.5-3.357 7.5-7.5s-3.357-7.5-7.5-7.5z"/></g></g></svg>