<svg id="Layer_1" enable-background="new 0 0 480 480" height="512" viewBox="0 0 480 480" width="512" xmlns="http://www.w3.org/2000/svg"><path d="m337.36 30.183c-8.251-.825-15.833 4.779-17.306 12.939-6.857 37.985-40.096 66.811-80.054 66.811s-73.198-28.826-80.054-66.812c-1.473-8.16-9.053-13.763-17.304-12.939l-120.234 12.02c-8.179.818-14.408 7.7-14.408 15.921v99.08c0 8.837 7.163 16 16 16h56.88c8.837 0 16 7.163 16 16v205.06c0 8.837 7.163 16 16 16h254.24c8.837 0 16-7.163 16-16v-205.06c0-8.837 7.163-16 16-16 1.37 0 58.69 0 56.88 0 8.837 0 16-7.163 16-16v-99.08c0-8.22-6.229-15.103-14.408-15.921z" fill="#ff99af"/><path d="m472 58.122v42.45c-27.4 1.08-141.64 8.69-236 101.35-82.88 81.38-99.31 178.18-103.23 208.34h-19.89c-8.84 0-16-7.16-16-16v-205.06c0-8.84-7.16-16-16-16h-56.88c-8.84 0-16-7.16-16-16v-99.08c0-8.22 6.23-15.1 14.41-15.92l120.23-12.02c8.25-.83 15.83 4.78 17.31 12.94 6.85 37.98 40.09 66.81 80.05 66.81s73.2-28.83 80.05-66.81c1.48-8.16 9.06-13.76 17.31-12.94l120.23 12.02c8.18.82 14.41 7.7 14.41 15.92z" fill="#ffa4b8"/><path d="m368.73 262.333c7.625-6.766 19.041-6.639 26.54 0l40 35.46c4.28 3.8 6.73 9.25 6.73 14.97v118.66c0 11.05-8.95 20-20 20h-80c-11.05 0-20-8.95-20-20 0-23.408 0-71.304 0-118.66 0-5.72 2.45-11.17 6.73-14.97 27.325-24.225 18.346-16.265 40-35.46z" fill="#d6f4fc"/><path d="m423.409 302.553c-48.457 27.034-79.245 75.468-84.247 129.71-.99 10.739-17.162 10.331-17.162-.841v-118.66c0-5.72 2.45-11.17 6.73-14.97 27.32-24.22 18.35-16.26 40-35.46 7.63-6.77 19.04-6.64 26.54 0l29.653 26.283c4.431 3.929 3.658 11.053-1.514 13.938z" fill="#e8f8fc"/><path d="m286 410.266c0 4.418-3.582 8-8 8h-181.117c-4.418 0-8-3.582-8-8v-229.064h-80.883c-4.418 0-8-3.582-8-8v-129.559c0-4.11 3.114-7.552 7.204-7.96l97.893-9.789c4.394-.446 8.316 2.768 8.756 7.164.439 4.396-2.768 8.316-7.165 8.756l-90.688 9.07v114.318h80.883c4.418 0 8 3.582 8 8v229.064h173.117c4.418 0 8 3.582 8 8zm186.796-374.583-150.65-15.064c-4.669-.477-8.796 3.202-8.796 7.96 0 40.445-32.905 73.351-73.351 73.351s-73.351-32.905-73.351-73.351c0-4.418-3.582-8-8-8s-8 3.582-8 8c0 49.268 40.083 89.351 89.351 89.351 46.3 0 84.488-35.399 88.921-80.554l135.08 13.508v114.318h-80.883c-4.418 0-8 3.582-8 8v53.221c0 4.418 3.582 8 8 8s8-3.582 8-8v-45.221h80.883c4.418 0 8-3.582 8-8v-129.559c0-4.11-3.114-7.551-7.204-7.96zm-32.222 256.125-40-35.461c-3.305-2.933-8.361-2.627-11.293.68-2.931 3.306-2.627 8.362.68 11.293l39.999 35.461c2.567 2.276 4.04 5.549 4.04 8.979v118.662c0 6.617-5.383 12-12 12h-80c-6.617 0-12-5.383-12-12v-118.661c0-3.431 1.473-6.703 4.039-8.979l16.853-14.941c7.981 7.488 18.702 12.088 30.483 12.088 4.418 0 8-3.582 8-8s-3.582-8-8-8c-15.768 0-28.596-12.828-28.596-28.596 0-4.418-3.582-8-8-8s-8 3.582-8 8c0 7.03 1.641 13.682 4.551 19.603l-17.905 15.873c-5.989 5.312-9.425 12.947-9.425 20.952v118.662c0 15.439 12.561 28 28 28h80c15.439 0 28-12.561 28-28v-118.662c0-8.005-3.436-15.641-9.426-20.953z"/></svg>