<svg id="Layer_1" enable-background="new 0 0 480 480" height="512" viewBox="0 0 480 480" width="512" xmlns="http://www.w3.org/2000/svg"><path d="m472 192.5v34c0 13.25-10.75 24-24 24h-8l-34.89 176.22c-2.97 14.98-16.12 25.78-31.39 25.78h-267.44c-15.27 0-28.42-10.8-31.39-25.78l-34.89-176.22h-8c-13.25 0-24-10.75-24-24v-34c0-13.25 10.75-24 24-24h32v-48c0-13.25 10.75-24 24-24h100v-45c0-13.25 10.75-24 24-24h172c13.25 0 24 10.75 24 24v117h40c13.25 0 24 10.75 24 24z" fill="#d6f4fc"/><path d="m472 192.5v34c0 13.25-10.75 24-24 24-40.55 0-364.345 0-416 0-13.25 0-24-10.75-24-24v-34c0-13.25 10.75-24 24-24h416c13.25 0 24 10.75 24 24z" fill="#fe4f60"/><path d="m408 51.5v117h-344v-48c0-13.25 10.75-24 24-24h100v-45c0-13.25 10.75-24 24-24h172c13.25 0 24 10.75 24 24z" fill="#ffaa64"/><path d="m440 250.5-5.94 30h-388.12l-5.94-30z" fill="#bdeffc"/><path d="m200.099 126.5h-82.099c-13.255 0-24 10.745-24 24v18h-30v-48c0-13.255 10.745-24 24-24h112c20.686 0 19.613 30 .099 30z" fill="#ffbd7b"/><path d="m384.099 57.5h-142.099c-13.255 0-24 10.745-24 24v23.14c-4.39-4.99-10.83-8.14-18-8.14h-12v-45c0-13.255 10.745-24 24-24h172c20.686 0 19.613 30 .099 30z" fill="#ffbd7b"/><path d="m248 106.9v61.6h-24v-48c0-13.25-10.75-24-24-24h-12v-20.8h28.8c17.23 0 31.2 13.98 31.2 31.2z" fill="#faa157"/><path d="m448.099 198.5h-386.099c-13.255 0-24 10.745-24 24v4.099c0 19.249-28.974 20.383-29.968 1.16-.053-1.027-.032-36.259-.032-35.259 0-13.255 10.745-24 24-24h416c20.686 0 19.613 30 .099 30z" fill="#ff6d7a"/><path d="m480 192.5v34c0 17.645-14.355 32-32 32h-366.333c-4.418 0-8-3.582-8-8s3.582-8 8-8h366.333c8.822 0 16-7.178 16-16v-34c0-8.822-7.178-16-16-16h-416c-8.822 0-16 7.178-16 16v34c0 8.822 7.178 16 16 16 8.252 0 10.945-.625 13.9 2.611 2.208 2.413.142-5.285 36.842 180.051 2.219 11.206 12.119 19.338 23.543 19.338h267.43c11.424 0 21.324-8.133 23.543-19.338l26.983-136.265c.857-4.334 5.073-7.153 9.401-6.293 4.334.858 7.152 5.067 6.294 9.402l-26.983 136.264c-3.697 18.675-20.199 32.23-39.238 32.23h-267.43c-19.039 0-35.541-13.555-39.238-32.23l-33.618-169.77c-20.449 0-33.429-15.268-33.429-32v-34c0-17.645 14.355-32 32-32h24v-40c0-17.645 14.355-32 32-32h112c17.645 0 32 14.355 32 32v15c0 4.418-3.582 8-8 8s-8-3.582-8-8v-15c0-8.822-7.178-16-16-16h-112c-8.822 0-16 7.178-16 16v40h376c17.645 0 32 14.355 32 32zm-248 111v96c0 4.418 3.582 8 8 8s8-3.582 8-8v-96c0-4.418-3.582-8-8-8s-8 3.582-8 8zm-80 15v66c0 4.418 3.582 8 8 8s8-3.582 8-8v-66c0-4.418-3.582-8-8-8s-8 3.582-8 8zm160 0v66c0 4.418 3.582 8 8 8s8-3.582 8-8v-66c0-4.418-3.582-8-8-8s-8 3.582-8 8zm-124-251c4.418 0 8-3.582 8-8v-8c0-8.822 7.178-16 16-16h172c8.822 0 16 7.178 16 16v81.5c0 4.418 3.582 8 8 8s8-3.582 8-8v-81.5c0-17.645-14.355-32-32-32h-172c-17.645 0-32 14.355-32 32v8c0 4.418 3.582 8 8 8z"/></svg>