<svg id="Layer_1" enable-background="new 0 0 480 480" height="512" viewBox="0 0 480 480" width="512" xmlns="http://www.w3.org/2000/svg"><path d="m272.83 8h-65.66c-72.17 0-130.67 58.5-130.67 130.67v317.33c0 8.84 7.16 16 16 16h295c8.84 0 16-7.16 16-16v-317.33c0-72.098-58.416-130.67-130.67-130.67z" fill="#ffebd2"/><path d="m209.922 357.415c21.368 13.363 4.504 46.153-18.885 36.767-48.103-19.305-81.706-66.179-81.706-120.734v-53.213c0-4.832 4.308-8.536 9.088-7.774 3.591.575 7.173.961 10.735 1.164 10.987.625 19.575 9.706 19.575 20.71v12.848c0 47.931 25.198 87.722 61.193 110.232z" fill="#fff3e4"/><path d="m403.5 138.67v317.33c0 8.837-7.163 16-16 16h-43.51c-30.11 0-54.55-24.46-54.55-54.74v-23.812l-.6.252c47.26-19.47 80.52-65.98 80.52-120.26v-66.483c0-3.419-2.152-6.486-5.385-7.599-23.617-8.128-43.857-24.511-56.63-46.965-2.966-5.215-10.364-5.503-13.657-.488-13.556 20.65-31.724 36.789-52.645 47.994-5.372 2.877-11.76-1.142-11.736-7.236.017-4.359-.486-8.742-1.524-13.049-1.517-6.292-9.503-8.311-13.771-3.445-24.654 28.112-59.504 41.958-95.969 38.234-4.675-.477-8.712 3.269-8.712 7.968v51.067c0 54.12 33.128 100.737 80.52 120.26l-.6-.249v23.809c0 30.28-24.44 54.74-54.55 54.74h-42.201c-8.837 0-16-7.163-16-16v-317.328c0-72.167 58.503-130.67 130.67-130.67.001 0 69.029.04 69.03.04 73.136 2.112 127.3 61.68 127.3 130.63z" fill="#42434d"/><path d="m289.44 393.448v20.772c-32.101 13.781-70.357 12.786-100.19 0v-20.769l.678.249c31.808 13.186 67.329 13.251 99.512-.252z" fill="#ffdfba"/><path d="m315.47 47.44c-2.6-.07-67.55-.04-68.9-.04-72.17 0-130.67 58.5-130.67 130.67v34.4c-3.616.603-6.57 3.757-6.57 7.76 0 55.604-1.523 68.329 5.93 92.16.952 3.016.64-10.676.64 159.61h-23.4c-8.837 0-16-7.163-16-16v-317.33c0-72.167 58.503-130.67 130.67-130.67 71.439 0 69.03.04 69.03.04 18.403.531 35.766 4.99 46.45 9.8 15.26 6.86 9.88 30.01-7.18 29.6z" fill="#4d4e59"/><path d="m357.91 326.88c-29.223 64.69-104.076 93.169-168.06 66.82-30.49-12.56-55.15-36.37-68.81-66.26 70.389-50.826 165.663-51.429 236.87-.56z" fill="#d6f4fc"/><path d="m204.988 398.854c-36.962-10.107-67.861-36.214-83.948-71.414 11.276-8.143 40.821-27.733 83.636-35.34 11.214-1.992 20.962 8.094 18.41 19.193-5.126 22.294-4.682 45.519 1.479 67.779 3.314 11.972-7.596 23.059-19.577 19.782z" fill="#e8f8fc"/><path d="m202.5 260c-4.418 0-8-3.582-8-8v-16c0-4.418 3.582-8 8-8s8 3.582 8 8v16c0 4.418-3.582 8-8 8zm70.332-260h-65.663c-76.462 0-138.669 62.207-138.669 138.668v333.332c0 4.418 3.582 8 8 8s8-3.582 8-8v-333.332c0-67.639 55.029-122.668 122.668-122.668h65.663c67.64 0 122.669 55.029 122.669 122.668v333.332c0 4.418 3.582 8 8 8s8-3.582 8-8v-333.332c0-76.461-62.207-138.668-138.668-138.668zm99.542 193.642c-2.477-1.007-20.532-5-38.414-20.898-14.079-12.517-21.615-26.687-25.458-36.37-2.532-6.378-11.387-6.781-14.531-.745-12.373 23.747-31.612 43.814-56.662 57.209.062-10.668-2.58-21.416-8.066-31.17-2.906-5.165-10.234-5.479-13.575-.595-17.811 26.033-43.788 43.396-75.326 44.106-4.417.1-7.917 3.761-7.818 8.178.098 4.356 3.66 7.82 7.995 7.82 26.882 0 56.339-12.573 79.518-39.569 1.761 7.418 1.713 15.153-.252 22.669-1.669 6.381 4.702 11.943 10.802 9.415 29.837-12.361 53.449-32.503 69.784-57.388 14.025 24.648 36.041 42.011 60.986 50.61v66.527c0 67.278-54.734 122.012-122.012 122.012-46.852 0-87.614-26.55-108.05-65.39 54.598-36.423 123.948-43.811 186.078-16.867 4.055 1.76 8.765-.103 10.522-4.156 1.758-4.054-.103-8.765-4.156-10.522-65.973-28.611-139.869-21.577-199.026 16.729-8.855-24.205-7.379-40.511-7.379-72.175 0-4.418-3.582-8-8-8s-8 3.582-8 8c0 32.685-2.052 55.522 12.15 86.976.174.503.401.994.682 1.467 13.738 29.494 37.595 53.355 67.087 67.098v18.646c0 25.825-20.781 46.742-46.55 46.741-4.417 0-8 3.58-8 8 0 4.418 3.582 8 8 8 34.579 0 62.551-28.041 62.551-62.741v-12.378c88.768 28.496 179.403-37.849 180.102-130.386.007-.224.003-73.209 0-73.519-.033-3.261-2.031-6.134-4.982-7.334zm-28.496 270.358c-16.399 0-31.28-8.404-39.807-22.481-2.289-3.779-7.208-4.987-10.988-2.698-3.779 2.29-4.987 7.208-2.698 10.988 11.453 18.905 31.45 30.191 53.493 30.191 4.418 0 8-3.582 8-8s-3.582-8-8-8zm-52.878-212v-16c0-4.418-3.582-8-8-8s-8 3.582-8 8v16c0 4.418 3.582 8 8 8s8-3.582 8-8z"/></svg>